<svg version="1.2" xmlns="http://www.w3.org/2000/svg" viewBox="0 0 512 512" width="512" height="512">
	<title>New Project</title>
	<style>
		.s0 { fill: #000000 } 
	</style>
	<path id="Layer 3" class="s0" d="m216.7 210.6l-13.2 39.5c0 0-47.7-50.5-34.6-100.3 12.7-48.6 38.6-63.7 63.9-70.9 25.3-7.3 39.7-3.1 54.1 1.4 14.5 4.5 39.8 23.7 49.8 42.5 10.3 19.3 13.9 46.1 8 69.8-7.3 29.1-37.4 76.7-37.4 76.7l-27.6-22.9c0 0 19.8-36.8 26.8-55 5.4-13.9 2.8-29.9 0.1-45.7-1.7-9.7-16.4-28-27.4-31.4-11.1-3.5-36.4-3.6-45 1.1-8.6 4.8-23.5 17.7-27.4 28.4-4.2 12-6.3 32.8-2.2 43.6 4.5 11.8 12.1 23.2 12.1 23.2z"/>
	<path id="Layer 2" class="s0" d="m237.2 4.5l38.3 0.5-0.3 60.7c0 0-11.7-3.2-19-2.9-7.3 0.2-19 2.9-19 2.9z"/>
	<path id="Layer 4" class="s0" d="m238.6 127.2c0 0 8.8-3.2 17.6-3 8.8 0.2 19 4.4 19 4.4 0 0-1.2 42.5-5.8 67.3-4.7 24.9-13.2 49.8-13.2 49.8 0 0 54.4 38.3 65.9 54.2 18.4 25.6 23.9 50.6 21.9 73.2-1.9 22.5-6.4 55.2-27.8 73.1-21.4 18-30.7 17.6-30.7 17.6l-0.2-39.3c0 0 23.8-9.2 25-45.6 0.9-24.6-8.4-49.8-17.5-60-9.2-10.2-49.8-39.5-49.8-39.5 0 0-18.5 33.8-27.7 51.3-11.8 22.7-16.6 45.2-12.6 66.3 3.5 18.6 24.2 30.2 24.2 30.2v39.5c0 0-36-14.1-47.4-34.1-12-21-16.4-42.5-13-70.2 3.4-27.6 31.6-69.1 44.3-99.1 12.7-30 23.2-55.4 26.4-80.5 3.1-25.2 1.4-55.6 1.4-55.6z"/>
	<path id="Layer 5" class="s0" d="m254.7 304.2c0 0 9.9 5 16.1 11.8 6.2 6.8 13.2 16.1 13.2 16.1 0 0-8.9 28.1-8.9 38.9 0 11.8 0.1 135.2 0.1 135.2h-38c0 0 1.4-122.3 2.9-139 1.8-19.9 4-38.6 14.6-63z"/>
</svg>