<svg version="1.2" xmlns="http://www.w3.org/2000/svg" viewBox="0 0 512 512" width="512" height="512">
	<title>New Project</title>
	<style>
		.s0 { fill: #000000 } 
	</style>
	<path id="Layer 6" class="s0" d="m78 149l355.5 2.8c0 0 13.5 11.7 13.4 38-0.1 25.2-11.6 38.9-11.6 38.9l-357.3 1.3c0 0-12.4-16.4-12-41.3 0.4-24.9 12-39.7 12-39.7z"/>
	<path id="Layer 6 copy" class="s0" d="m78 281l355.5 2.8c0 0 13.5 11.7 13.4 38-0.1 25.2-11.6 38.9-11.6 38.9l-357.3 1.3c0 0-12.4-16.4-12-41.3 0.4-24.9 12-39.7 12-39.7z"/>
</svg>