<svg version="1.2" xmlns="http://www.w3.org/2000/svg" viewBox="0 0 1659 322" width="1659" height="322">
	<defs>
		<radialGradient id="g1" cx="0" cy="0" r="1" gradientUnits="userSpaceOnUse" gradientTransform="matrix(1410.15,0,0,1410.15,829.5,1081.5)">
			<stop offset="0" stop-color="#1ec1da"/>
			<stop offset="1" stop-color="#000000"/>
		</radialGradient>
	</defs>
	<style>
		.s0 { fill: url(#g1) } 
		.s1 { opacity: .15;fill: #0ab080 } 
		.s2 { opacity: .25;fill: #12a97f } 
	</style>
	<path class="s0" d="m0 0h1659v304.8c0 0-332.7-218.6-830-219.7-496.2-1.1-829 223.9-829 223.9z"/>
	<path class="s1" d="m1746.7 361.4c0 0-420.4-261.2-917.7-262.3-496.2-1.1-908.6 255-908.6 255 0 0 373.2-284.6 908.6-281.3 582.5 3.6 917.7 288.6 917.7 288.6z"/>
	<path class="s2" d="m1749.7 350.4c0 0-420.4-261.2-917.7-262.3-496.2-1.1-908.6 255-908.6 255 0 0 373.2-284.6 908.6-281.3 582.5 3.6 917.7 288.6 917.7 288.6z"/>
</svg>